<svg width="847" height="720" viewBox="0 0 847 720" fill="none" xmlns="http://www.w3.org/2000/svg">
<path d="M423.265 672.5C595.854 672.5 735.765 532.589 735.765 360C735.765 187.411 595.854 47.5 423.265 47.5C250.676 47.5 110.765 187.411 110.765 360C110.765 532.589 250.676 672.5 423.265 672.5Z" stroke="#2199FA"/>
<path fill-rule="evenodd" clip-rule="evenodd" d="M423.265 -67C210.234 -67 33.6395 89.0032 1.49098 293H0.478516C32.6364 88.4485 209.68 -68 423.265 -68C636.849 -68 813.893 88.4485 846.051 293H845.039C812.89 89.0032 636.296 -67 423.265 -67ZM764.294 617C686.355 720.259 562.604 787 423.265 787C283.926 787 160.175 720.259 82.236 617H80.9839C159.078 720.843 283.329 788 423.265 788C563.201 788 687.452 720.843 765.546 617H764.294Z" fill="#2199FA"/>
</svg>
